<svg width="184" height="184" viewBox="0 0 184 184" fill="none" xmlns="http://www.w3.org/2000/svg">
<g filter="url(#filter0_d_1_140)">
<circle cx="92" cy="82" r="32" fill="white"/>
<path d="M83.9778 79.4224C83.6309 79.4224 83.298 79.4753 82.9666 79.5235C83.074 79.1626 83.1844 78.7955 83.3618 78.4657C83.5391 77.9866 83.816 77.5713 84.0913 77.1529C84.3215 76.7002 84.7275 76.3937 85.0262 76.0064C85.3389 75.63 85.7651 75.3795 86.1026 75.0669C86.434 74.7402 86.868 74.5769 87.2133 74.3466C87.5742 74.1397 87.8884 73.9111 88.2244 73.8022L89.0629 73.4569L89.8002 73.1504L89.0458 70.1357L88.1171 70.3597C87.82 70.4344 87.4575 70.5215 87.0453 70.6257C86.6238 70.7035 86.1742 70.9166 85.6733 71.1111C85.1786 71.332 84.6062 71.4813 84.0742 71.836C83.5391 72.1751 82.9215 72.4582 82.3771 72.9124C81.8498 73.3806 81.2135 73.7866 80.7438 74.3824C80.2304 74.9393 79.7233 75.5242 79.3298 76.19C78.874 76.8246 78.5644 77.5215 78.2378 78.2106C77.9422 78.8997 77.7042 79.6044 77.5098 80.2889C77.1411 81.6609 76.9762 82.9644 76.9124 84.0797C76.8595 85.1966 76.8906 86.1253 76.956 86.7973C76.9793 87.1146 77.0229 87.4226 77.054 87.6357L77.0929 87.8971L77.1333 87.8877C77.41 89.1801 78.0469 90.3678 78.9704 91.3134C79.8938 92.2589 81.0661 92.9237 82.3516 93.2308C83.6371 93.5379 84.9833 93.4748 86.2345 93.0488C87.4856 92.6228 88.5906 91.8513 89.4216 90.8235C90.2526 89.7957 90.7756 88.5537 90.9302 87.2411C91.0848 85.9285 90.8646 84.5989 90.2951 83.4062C89.7256 82.2135 88.8301 81.2064 87.7121 80.5014C86.5941 79.7964 85.2994 79.4223 83.9778 79.4224ZM101.089 79.4224C100.742 79.4224 100.409 79.4753 100.078 79.5235C100.185 79.1626 100.296 78.7955 100.473 78.4657C100.65 77.9866 100.927 77.5713 101.202 77.1529C101.433 76.7002 101.839 76.3937 102.137 76.0064C102.45 75.63 102.876 75.3795 103.214 75.0669C103.545 74.7402 103.979 74.5769 104.324 74.3466C104.685 74.1397 105 73.9111 105.336 73.8022L106.174 73.4569L106.911 73.1504L106.157 70.1357L105.228 70.3597C104.931 70.4344 104.569 70.5215 104.156 70.6257C103.735 70.7035 103.285 70.9166 102.784 71.1111C102.291 71.3335 101.717 71.4813 101.185 71.8375C100.65 72.1766 100.033 72.4597 99.4882 72.914C98.9609 73.3822 98.3246 73.7882 97.8549 74.3824C97.3415 74.9393 96.8344 75.5242 96.4409 76.19C95.9851 76.8246 95.6755 77.5215 95.3489 78.2106C95.0533 78.8997 94.8153 79.6044 94.6209 80.2889C94.2522 81.6609 94.0873 82.9644 94.0235 84.0797C93.9706 85.1966 94.0018 86.1253 94.0671 86.7973C94.0904 87.1146 94.134 87.4226 94.1651 87.6357L94.204 87.8971L94.2444 87.8877C94.5211 89.1801 95.158 90.3678 96.0815 91.3134C97.0049 92.2589 98.1772 92.9237 99.4627 93.2308C100.748 93.5379 102.094 93.4748 103.346 93.0488C104.597 92.6228 105.702 91.8513 106.533 90.8235C107.364 89.7957 107.887 88.5537 108.041 87.2411C108.196 85.9285 107.976 84.5989 107.406 83.4062C106.837 82.2135 105.941 81.2064 104.823 80.5014C103.705 79.7964 102.411 79.4223 101.089 79.4224Z" fill="#F26440"/>
</g>
<defs>
<filter id="filter0_d_1_140" x="0" y="0" width="184" height="184" filterUnits="userSpaceOnUse" color-interpolation-filters="sRGB">
<feFlood flood-opacity="0" result="BackgroundImageFix"/>
<feColorMatrix in="SourceAlpha" type="matrix" values="0 0 0 0 0 0 0 0 0 0 0 0 0 0 0 0 0 0 127 0" result="hardAlpha"/>
<feOffset dy="10"/>
<feGaussianBlur stdDeviation="30"/>
<feComposite in2="hardAlpha" operator="out"/>
<feColorMatrix type="matrix" values="0 0 0 0 0 0 0 0 0 0 0 0 0 0 0 0 0 0 0.1 0"/>
<feBlend mode="normal" in2="BackgroundImageFix" result="effect1_dropShadow_1_140"/>
<feBlend mode="normal" in="SourceGraphic" in2="effect1_dropShadow_1_140" result="shape"/>
</filter>
</defs>
</svg>
