<svg width="49" height="49" viewBox="0 0 49 49" fill="none" xmlns="http://www.w3.org/2000/svg">
<circle cx="24.3179" cy="24.3179" r="24.3179" fill="#F26440"/>
<path fill-rule="evenodd" clip-rule="evenodd" d="M13.7234 24.6755C13.7234 24.8829 13.8058 25.0819 13.9525 25.2286C14.0992 25.3753 14.2982 25.4577 14.5057 25.4577L32.9567 25.4577L28.033 30.3799C27.8861 30.5268 27.8035 30.726 27.8035 30.9337C27.8035 31.1415 27.8861 31.3407 28.033 31.4876C28.1799 31.6345 28.3791 31.717 28.5868 31.717C28.7946 31.717 28.9938 31.6345 29.1407 31.4876L35.399 25.2293C35.4718 25.1567 35.5296 25.0703 35.569 24.9753C35.6085 24.8802 35.6288 24.7784 35.6288 24.6755C35.6288 24.5726 35.6085 24.4707 35.569 24.3756C35.5296 24.2806 35.4718 24.1943 35.399 24.1216L29.1407 17.8633C29.0679 17.7906 28.9816 17.7329 28.8866 17.6935C28.7915 17.6542 28.6897 17.6339 28.5868 17.6339C28.3791 17.6339 28.1799 17.7164 28.033 17.8633C27.8861 18.0102 27.8035 18.2094 27.8035 18.4172C27.8035 18.6249 27.8861 18.8241 28.033 18.971L32.9567 23.8932L14.5057 23.8932C14.2982 23.8932 14.0992 23.9756 13.9525 24.1223C13.8058 24.269 13.7234 24.468 13.7234 24.6755Z" fill="white"/>
</svg>
