<svg width="49" height="49" viewBox="0 0 49 49" fill="none" xmlns="http://www.w3.org/2000/svg">
<circle cx="24.3179" cy="24.3179" r="24.3179" fill="white"/>
<path fill-rule="evenodd" clip-rule="evenodd" d="M35.6275 24.6755C35.6275 24.8829 35.5451 25.0819 35.3984 25.2286C35.2517 25.3753 35.0527 25.4577 34.8453 25.4577L16.3943 25.4577L21.318 30.3799C21.4649 30.5268 21.5474 30.726 21.5474 30.9337C21.5474 31.1415 21.4649 31.3407 21.318 31.4876C21.1711 31.6345 20.9719 31.717 20.7641 31.717C20.5564 31.717 20.3572 31.6345 20.2103 31.4876L13.952 25.2293C13.8791 25.1567 13.8213 25.0703 13.7819 24.9753C13.7425 24.8802 13.7222 24.7784 13.7222 24.6755C13.7222 24.5726 13.7425 24.4707 13.7819 24.3756C13.8213 24.2806 13.8791 24.1943 13.952 24.1216L20.2103 17.8633C20.283 17.7906 20.3694 17.7329 20.4644 17.6935C20.5594 17.6542 20.6613 17.6339 20.7641 17.6339C20.9719 17.6339 21.1711 17.7164 21.318 17.8633C21.4649 18.0102 21.5474 18.2094 21.5474 18.4172C21.5474 18.6249 21.4649 18.8241 21.318 18.971L16.3943 23.8932L34.8453 23.8932C35.0527 23.8932 35.2517 23.9756 35.3984 24.1223C35.5451 24.269 35.6275 24.468 35.6275 24.6755Z" fill="#171717"/>
</svg>
